<?xml version="1.0" encoding="UTF-8"?>
<svg width="32px" height="26px" viewBox="0 0 32 26" version="1.1" xmlns="http://www.w3.org/2000/svg" xmlns:xlink="http://www.w3.org/1999/xlink">
    <!-- Generator: Sketch 48.2 (47327) - http://www.bohemiancoding.com/sketch -->
    <title>K9</title>
    <desc>Created with Sketch.</desc>
    <defs></defs>
    <g id="iPhone-8" stroke="none" stroke-width="1" fill="none" fill-rule="evenodd" transform="translate(-13.000000, -7.000000)" opacity="0.675384964">
        <path d="M13.295,7.415 L14.252,7.415 C14.153,8.24 14.153,9.065 14.153,9.89 L14.153,29.525 C14.153,30.35 14.153,31.175 14.252,32 L13.295,32 C13.394,31.175 13.394,30.35 13.394,29.525 L13.394,9.89 C13.394,9.065 13.394,8.24 13.295,7.415 Z M15.803,19.691 L26.33,29.525 C27.221,30.35 28.145,31.208 29.168,32 L27.65,32 C26.957,31.175 26.099,30.35 25.208,29.525 L14.78,19.724 L24.713,9.89 C25.538,9.065 26.363,8.207 26.99,7.415 L28.442,7.415 C27.452,8.24 26.561,9.065 25.736,9.89 L15.803,19.691 Z M43.5949987,18.734 L43.5949987,17.81 C42.2749987,20.714 39.1729987,22.727 35.9059987,22.727 C31.5499987,22.727 28.5799987,19.592 28.5799987,15.17 C28.5799987,10.418 31.6159987,7.085 36.0049987,7.085 C41.4829987,7.085 44.3539987,11.177 44.3539987,18.734 C44.3539987,27.677 41.0539987,32.33 35.2129987,32.33 C34.0909987,32.33 33.1669987,32.198 32.3749987,32 C31.4509987,31.769 30.6259987,31.439 29.8009987,30.977 L30.1969987,30.185 C31.0549987,30.779 31.6819987,31.043 32.5729987,31.307 C33.2659987,31.505 34.3219987,31.637 35.2129987,31.637 C40.6249987,31.637 43.5949987,27.248 43.5949987,18.734 Z M35.9389987,22.034 C39.1729987,22.034 42.1429987,19.988 43.5289987,16.853 C43.0999987,10.913 40.5919987,7.778 36.0049987,7.778 C32.0119987,7.778 29.3389987,10.715 29.3389987,15.17 C29.3389987,19.229 31.9789987,22.034 35.9389987,22.034 Z" id="K9" fill="#FFFFFF"></path>
    </g>
</svg>